<svg width="182" height="174" viewBox="0 0 182 174" fill="none" xmlns="http://www.w3.org/2000/svg">
    <path fill="#fff" d="M12 0h170v170H12z"/>
    <path d="M91.963 161.9c35.35 0 64.009-28.659 64.009-64.136 0-35.476-28.659-64.135-64.009-64.135s-64.01 28.659-64.01 64.136c0 35.476 28.66 64.135 64.01 64.135zM163.295 77.69a5.176 5.176 0 1 0 0-10.351 5.176 5.176 0 0 0 0 10.352zM170.87 57.364a3.535 3.535 0 1 0 0-7.07 3.535 3.535 0 0 0 0 7.07zM23.535 81.352a3.535 3.535 0 1 0 0-7.07 3.535 3.535 0 0 0 0 7.07z" fill="#EAEEF9"/>
    <g filter="url(#eegiyvl0sa)">
        <path d="m154.742 138.816-30.352-11.592-33.303 13.34-36.164-13.432-27.676 10.58c-2.49.92-5.074-1.38-4.336-3.956l17.252-59.52c.553-1.932 1.937-3.588 3.782-4.416L71.621 56.85l19.466 13.983 19.004-12.051 30.628 13.43c2.03.92 3.506 2.669 3.967 4.785l14.392 58.048c.646 2.484-1.845 4.692-4.336 3.772z" fill="url(#eu9tp36d0b)"/>
    </g>
    <path d="m71.621 56.94-16.698 70.192-27.676 10.58c-2.49.92-5.074-1.38-4.336-3.956l17.252-59.52c.553-1.932 1.937-3.588 3.782-4.416l27.676-12.88z" fill="#E7EAF1"/>
    <path d="m154.557 139.184-30.351-11.592-14.3-68.351 30.629 13.43c2.029.92 3.505 2.669 3.967 4.785l14.391 58.048c.646 2.484-1.845 4.692-4.336 3.68z" fill="#fff"/>
    <path d="m124.483 127.224-33.396 13.34V70.832l19.004-12.051 14.392 68.443z" fill="#E7EAF1"/>
    <path d="M61.289 111.217h-.37c-.368-.092-.645-.092-1.014-.184-1.015-.276-1.568-1.196-1.384-2.207.185-1.012 1.2-1.564 2.214-1.38.277.092.554.092.83.184 1.015.184 1.661 1.104 1.477 2.115-.093.92-.83 1.472-1.753 1.472zm6.457-.184c-.83 0-1.568-.552-1.752-1.38a1.762 1.762 0 0 1 1.383-2.207c.277-.092.554-.184.83-.184 1.016-.276 2.03.276 2.307 1.196.277 1.011-.277 2.023-1.2 2.299-.368.092-.645.184-1.014.276h-.553zm-13.192-2.575c-.369 0-.738-.092-1.015-.276l-.83-.552c-.83-.552-1.015-1.748-.461-2.576.553-.828 1.753-1.012 2.583-.46.277.184.461.368.738.46.83.552 1.107 1.656.554 2.576-.37.552-.923.828-1.569.828zm19.835-.46c-.554 0-1.2-.276-1.569-.828-.553-.828-.368-2.024.554-2.576.277-.184.461-.276.738-.46.83-.552 2.03-.368 2.583.46.554.828.37 2.024-.461 2.576l-.83.552c-.277.092-.646.276-1.015.276zm46.496-2.208c-.923 0-1.753-.736-1.845-1.748-.093-1.012.738-1.932 1.752-1.932.185 0 .462 0 .738-.092a1.8 1.8 0 0 1 2.122 1.472c.185 1.012-.461 1.932-1.476 2.116-.369.092-.738.092-1.107.184h-.184zm-71.958-2.116c-.462 0-1.015-.184-1.292-.552-.184-.184-.461-.46-.646-.736-.738-.736-.645-1.932.093-2.576.738-.644 1.937-.644 2.583.092.184.184.369.46.646.644.738.736.645 1.932-.093 2.576-.369.368-.83.552-1.291.552zm66.053 0c-.369 0-.83-.092-1.107-.368-.276-.184-.553-.368-.738-.644-.738-.644-.83-1.84-.184-2.576.646-.736 1.845-.828 2.583-.184.185.184.461.368.646.552.83.644.922 1.748.277 2.576-.369.368-.923.644-1.477.644zm-34.78-.276c-.553 0-1.014-.184-1.383-.644-.646-.736-.553-1.932.184-2.576.277-.184.462-.368.646-.552.738-.644 1.938-.552 2.583.184.646.736.554 1.932-.184 2.576-.277.184-.461.368-.738.644-.277.276-.646.368-1.107.368zm47.511-.276c-.645 0-1.199-.276-1.568-.828-.553-.828-.277-2.024.554-2.576.276-.184.461-.276.738-.46.83-.552 2.029-.368 2.583.46.553.828.369 2.024-.461 2.576l-.831.552c-.369.184-.738.276-1.015.276zm-18.081-4.508c-.462 0-.923-.184-1.292-.552-.184-.184-.461-.368-.646-.644-.738-.644-.83-1.84-.092-2.576.646-.736 1.845-.828 2.583-.092.277.184.462.46.738.644.738.736.738 1.84.093 2.576-.462.46-.923.644-1.384.644zm23.893 0c-.553 0-1.014-.184-1.383-.644-.646-.736-.554-1.932.184-2.576.185-.184.461-.368.646-.552.738-.644 1.937-.552 2.583.184.646.736.554 1.932-.184 2.576-.277.184-.462.368-.738.644-.185.276-.646.368-1.108.368zm-47.971-.184c-.462 0-.923-.184-1.292-.552-.738-.736-.738-1.84 0-2.576l.646-.644a1.873 1.873 0 0 1 2.583-.092 1.86 1.86 0 0 1 .092 2.576l-.646.644c-.369.46-.83.644-1.383.644zm-41.33-.368c-.554 0-1.107-.276-1.476-.736-.185-.276-.37-.46-.554-.736-.645-.828-.461-1.932.37-2.576.83-.643 1.937-.46 2.582.368l.554.736c.646.828.461 1.932-.37 2.576-.368.184-.737.368-1.106.368zm59.78-4.14c-.369 0-.738-.091-1.107-.367-.277-.184-.461-.369-.738-.553-.83-.551-1.015-1.747-.369-2.575.554-.828 1.753-1.012 2.583-.368.277.184.462.368.738.552.831.644 1.015 1.748.369 2.575-.369.46-.922.736-1.476.736zm35.057-.183c-.462 0-1.015-.184-1.384-.553-.738-.735-.646-1.931.092-2.575l.646-.644c.738-.736 1.937-.644 2.583.092.738.736.646 1.932-.092 2.576l-.646.643c-.277.276-.738.46-1.199.46zm-48.433-.737c-.462 0-.923-.183-1.292-.46-.738-.735-.83-1.84-.092-2.575.184-.276.46-.46.645-.736.739-.736 1.846-.736 2.584 0s.738 1.84 0 2.576c-.185.184-.37.46-.646.644-.277.368-.738.552-1.2.552zm-50.648-1.011c-.646 0-1.2-.276-1.568-.828l-.554-.736c-.553-.828-.276-2.024.554-2.576.83-.552 2.03-.276 2.583.552l.461.736c.554.828.37 2.024-.553 2.576-.185.184-.554.276-.923.276zm57.751-1.932c-.184 0-.461 0-.646-.092-.276-.092-.461-.092-.645-.184a1.763 1.763 0 0 1-1.384-2.208c.276-1.012 1.199-1.656 2.214-1.38.369.092.738.184 1.107.368.922.368 1.476 1.38 1.107 2.392-.37.644-1.015 1.104-1.753 1.104z" fill="#CBD4E0"/>
    <path d="M91.087 8c16.882 0 30.536 13.615 30.536 30.45 0 13.431-19.374 40.017-27.307 50.32-1.661 2.209-4.982 2.209-6.643 0-7.933-10.302-27.307-36.889-27.307-50.32C60.551 21.615 74.204 8 91.086 8z" fill="#CBD4E0"/>
    <path d="M91.087 50.41c6.674 0 12.085-5.396 12.085-12.052s-5.41-12.051-12.085-12.051C84.412 26.307 79 31.702 79 38.358c0 6.656 5.411 12.051 12.086 12.051z" fill="#A5B0BE"/>
    <defs>
        <linearGradient id="eu9tp36d0b" x1="90.938" y1="54.913" x2="90.938" y2="141.466" gradientUnits="userSpaceOnUse">
            <stop stop-color="#FDFEFF"/>
            <stop offset=".996" stop-color="#ECF0F5"/>
        </linearGradient>
        <filter id="eegiyvl0sa" x=".783" y="45.849" width="180.398" height="127.715" filterUnits="userSpaceOnUse" color-interpolation-filters="sRGB">
            <feFlood flood-opacity="0" result="BackgroundImageFix"/>
            <feColorMatrix in="SourceAlpha" values="0 0 0 0 0 0 0 0 0 0 0 0 0 0 0 0 0 0 127 0" result="hardAlpha"/>
            <feOffset dy="11"/>
            <feGaussianBlur stdDeviation="11"/>
            <feColorMatrix values="0 0 0 0 0.397708 0 0 0 0 0.47749 0 0 0 0 0.575 0 0 0 0.27 0"/>
            <feBlend in2="BackgroundImageFix" result="effect1_dropShadow_277_4364"/>
            <feBlend in="SourceGraphic" in2="effect1_dropShadow_277_4364" result="shape"/>
        </filter>
    </defs>
</svg>
