<svg width="174" height="170" viewBox="0 0 174 170" fill="none" xmlns="http://www.w3.org/2000/svg">
    <path fill="#fff" d="M2 0h170v170H2z"/>
    <path d="M54.806 142.675h97.932M162.301 142.675H172" stroke="#CDD6E1" stroke-width="2.386" stroke-miterlimit="10" stroke-linecap="round" stroke-linejoin="round"/>
    <path d="M56.95 135.235a5.402 5.402 0 1 0 .001-10.803 5.402 5.402 0 0 0 0 10.803zM109.835 112.761c.067 8.536.801 19.339 1.068 20.473-.067 1.201-2.601 5.002-4.669 2.401-2.067-2.601-6.268-8.203-4.334-18.74 1.934-10.47 7.935-4.134 7.935-4.134z" fill="#B8BFCD"/>
    <path d="M56.217 135.168c0 .067 0 .2.066.267 0 .067.067.2.067.267.067.066.067.2.133.266.067.067.134.134.2.267.334.467.934.867 1.601 1.267.133.067.334.134.467.2.067.067.2.067.267.134.066.066.2.066.266.133l.267.067a5.61 5.61 0 0 0 1.134.333c.2.067.333.067.533.134.134 0 .267.066.467.066.134 0 .267.067.4.067 1.067.133 2.068.067 2.935-.267 3-1.133 4.201-3.468 4.201-3.468s.8.201 2.067.334c2.401.333 6.403.8 9.87.467 1.134-.134 2.334-.4 3.602-.734.4-.133.8-.267 1.266-.4.8-.267 1.534-.6 2.335-.934a24.255 24.255 0 0 0 5.801-3.601c.2-.133.4-.333.6-.467.934-.867 1.735-1.8 2.335-2.734 1.2-2.067 2.8-3.801 4.535-5.468 2.601-2.468 5.668-4.602 8.469-6.869.867-.667 1.734-1.401 2.534-2.068 2.601-2.267 4.935-4.935 6.536-8.002 1.734-3.335 1.734-6.469 1.467-10.137 0-.2-.4-2.6-.267-2.667a6.343 6.343 0 0 0 2.534-3.335c1.067-2.8.667-6.402-.6-8.736a7.272 7.272 0 0 0-.4-.734c-1.334-2.334-2.934-5.068-4.735-6.869l-3.268-3.267H85.493s-.333 1.934-.8 4.334c-.067.2-.067.4-.134.6-.066.4-.133.8-.266 1.201-.067.2-.067.4-.134.6 0 .067 0 .067-.066.134-.067.466-.2.867-.267 1.333-.267 1.334-.6 2.534-1 3.535 0 .067-.067.2-.067.267-.2.533-.4 1-.6 1.333-1.6 2.601-9.737 10.07-15.406 14.272-5.668 4.201-8.269 11.337-9.736 22.874-1.667 11.47-1.067 13.804-.8 16.005zM107.434 132.034c3.801-.4 3.734 0 5.868 0 2.134 0 2.668 1.067 3.468 2.067.467.667 1.134 2.601 1.534 4.001.267.801-.334 1.534-1.134 1.601-2.401 0-6.735.067-7.469 0-1.067-.133-3.334-.4-4.335-2.067-.333-.601-.533-1.401-.733-2.201-.267-1.534.733-3.068 2.334-3.268l.467-.133z" fill="#EAEEF9"/>
    <path opacity=".3" d="M56.217 135.168c.2 2.201 5.669 4.268 8.67 3.135 3.067-1.134 4.201-3.468 4.201-3.468s6.602 1.334 11.938.867c4-.4 9.403-2.734 12.937-5.735l-.467-10.137s-.4-8.87-.8-12.738c-.334-3.868 2.734-3.801 2.6-8.803-.2-5.001 1.801-13.87 4.402-22.007l-9.07-6.802-6.201 3.534c-.6 3.335-1.601 7.536-2.468 9.07-1.6 2.601-9.736 10.07-15.405 14.272-5.669 4.201-8.27 11.337-9.736 22.874-1.468 11.403-.867 13.738-.6 15.938z" fill="#BFC8D6"/>
    <path opacity=".4" d="M56.217 135.168c0 .067 0 .2.067.267 0 .067.066.2.066.267.067.066.067.2.134.266a.932.932 0 0 1 .2.267c.333.467.934.867 1.6 1.267.134.067.334.134.467.2.067.067.2.067.267.134.067.066.2.066.267.133l.266.067c.334.133.734.267 1.134.333.2.067.334.067.534.134.933-.601 1.467-1.001 1.467-1.001l-.4-2.4c-.134-.734-.267-1.734-.467-3.068-.867-5.535-.267-16.472 7.135-16.139-.8-5.602 2.268-11.804 4.936-15.738 2.734-3.868 4.734-1.734 7.069.933.266-1.133-.934-5.668-2.401-9.67 3 3.602 5.668 4.869 12.804 5.536-3.201-2.668-3.601-4.068-6.202-9.937 3.268 1.534 9.937 3.334 13.938 3.868 9.67 1.267 18.006.8 23.608-2.6 1.067-2.802.666-6.403-.601-8.737-.133-.267-.266-.534-.4-.734-5.135-.466-13.871-1.2-22.074-1.934-6.002-.533-11.737-1.067-15.605-1.4 0 .067 0 .067-.066.133-.067.467-.2.867-.267 1.334-.267 1.334-.6 2.534-1 3.535 0 .066-.067.2-.067.266-.2.534-.4 1-.6 1.334-1.601 2.601-9.737 10.07-15.406 14.272-5.668 4.201-8.269 11.337-9.736 22.874-1.534 11.403-.934 13.737-.667 15.938z" fill="#BFC8D6"/>
    <path d="M94.563 139.103s-.533-8.069-.6-9.136c-.066-.734-4.401 2.734-8.402-4.669-4.002-7.402-4.602-8.736-4.469-10.603-1.2 9.403 2.534 15.738 3.268 19.139.734 3.402 1.4 3.268 1.4 3.268l6.736 1.334 2.067.667z" fill="#B8BFCD"/>
    <path d="M87.894 133.634c3.802-.467 3.735 0 5.869 0s2.667 1.134 3.468 2.201c.467.667 1.134 2.801 1.534 4.335.266.867-.334 1.667-1.134 1.667-2.4 0-7.736-.067-8.47-.133-1.067-.134-2.334-.334-3.267-2.134-.334-.667-.534-1.534-.734-2.401-.267-1.667.734-3.268 2.334-3.535h.4zM70.555 134.768c1.734 1.067 2.735 3.601 3.268 5.402.267.866-.333 1.667-1.134 1.667-2.4 0-7.735-.067-8.469-.134-4.201-.533-4.668-5.135-1.467-6.935 2-1.201 5.802-1.267 7.802 0zM116.736 82.904a13.377 13.377 0 0 1-1.943 1.49 25.318 25.318 0 0 1-2.933 1.631c-3.093 1.452-6.385 2.46-9.865 2.62-2.877.142-5.932-.028-8.752-.906-.981-.264-1.98-.66-2.848-1.075-4.998-2.453-7.846-4.472-8.242-10.074-.395-5.602-.14-9.95-.14-9.95 0-.471.51-1.15.65-1.575.265-.509.454-1.075.718-1.584.462-1.01.98-2.094 1.519-3.046 1.188-2.056 2.688-3.82 4.593-5.102 3.075-2.055 6.8-2.857 10.45-3.243 2.651-.31 5.395-.433 8.055.265 2.31.613 4.29 1.745 6.063 3.311 1.924 1.68 3.433 3.754 5.121 5.669 0 0 1.461 4.103 2.649 9.592 1.187 5.489-.991 8.158-5.095 11.977z" fill="#EAEEF9"/>
    <path d="M94.546 74.215c-.698.773-1.35 3.291-5.188 2.357-5.45-1.378-5.884-8.187-3.346-10.705 4.537-4.555 10.007-3.517 11.515 1.388 1.555 5.234-1.576 5.48-2.981 6.96z" fill="#BFC8D6"/>
    <path d="M83.892 58.086c1.462-2.027 3.622-1.527 2.876.802-1.217 3.744-3.65 5.573-3.84 19.343-.057 2.433-8.375-2.51-8.723-11.083-.094-1.603 1.84-2.216 1.84-2.216 1.16-.368 5.545-3.62 7.847-6.846z" fill="#989FB0"/>
    <path d="M114.125 80.65c.236 1.65 0 3.3-.604 4.734-.802.518-1.679.98-2.556 1.442-2.716 1.264-5.621 2.15-8.564 2.3-2.47.151-5.196-.066-7.658-.793-1.131-1.32-1.82-2.839-2.074-4.621-.773-5.414 3.425-10.459 9.367-11.307 5.875-.839 11.317 2.83 12.089 8.244z" fill="#BFC8D6"/>
    <path d="M91.473 73.913a3.935 3.935 0 1 0-1.112-7.79 3.935 3.935 0 0 0 1.112 7.79z" fill="#fff"/>
    <path d="M94.471 69.914c.236 1.65-.953 3.235-2.603 3.47-1.65.236-3.235-.953-3.47-2.603.301.226.66.377 1.056.32a1.409 1.409 0 0 0 1.188-1.584c-.103-.726-.782-1.235-1.518-1.197A3.08 3.08 0 0 1 91 67.31c1.716-.244 3.225.888 3.47 2.604z" fill="#989FB0"/>
    <path d="M113.126 70.822a3.935 3.935 0 1 0-1.112-7.79 3.935 3.935 0 0 0 1.112 7.79z" fill="#fff"/>
    <path d="M109.128 67.822c.235 1.65 1.82 2.84 3.47 2.603 1.651-.235 2.839-1.82 2.604-3.47-.227.302-.529.547-.925.604a1.408 1.408 0 0 1-1.584-1.189c-.104-.726.406-1.405 1.122-1.575a3.079 3.079 0 0 0-2.084-.443 3.06 3.06 0 0 0-2.603 3.47zM102.129 73.065a6.588 6.588 0 0 0-1.556.424c-.632.293-1.575.764-1.452 1.622.15 1.057 2.801 1.689 3.461 1.595.66-.095 3.037-1.377 2.877-2.5-.151-1.056-1.189-1.244-2.066-1.254-.405-.01-.877-.01-1.264.113z" fill="#989FB0"/>
    <path d="m102.818 76.47-.245-.302-.151.358s.132 2.34-.293 3.14c.396.416.726.369.849.284.207.038.537-.01.735-.51-.49-.603-.895-2.97-.895-2.97zM89.323 61.69c-.886.395-1.64.773-2.225 1.395-.585.622-1 1.49-1.142 2.386.01.066-.056.075-.123.085-.066.01-.075-.057-.075-.057-.066-.462.057-1.018.198-1.443.132-.49.406-.933.755-1.32a5.075 5.075 0 0 1 1.141-.971c.444-.198.962-.34 1.443-.274.076.057.151.114.028.198.067-.01.067-.01 0 0zM111.703 58.495c.962.132 1.792.283 2.528.717.735.434 1.377 1.15 1.763 1.971.01.066.076.057.142.047.066-.009.056-.075.056-.075-.066-.462-.339-.962-.594-1.33-.264-.434-.65-.783-1.094-1.056a5.071 5.071 0 0 0-1.367-.613c-.481-.066-1.019-.057-1.462.14-.057.076-.047.142.028.199 0 0-.066.01 0 0z" fill="#989FB0"/>
    <path d="M115.487 52.903c-1.971-1.538-3.904-.453-2.537 1.575 2.216 3.254 5.064 4.33 9.099 17.495.735 2.32 7.338-4.752 5.274-13.08-.359-1.566-2.386-1.613-2.386-1.613-1.217-.028-6.338-1.925-9.45-4.377z" fill="#989FB0"/>
    <path d="M2 144.171h36.412c1.134 0 1.334 1.668.2 1.868-10.27 2.134-22.674 3.001-15.538 7.335 12.137 7.336 31.076 11.071 53.617 6.869 20.273-3.734 20.54-58.686 21.474-73.757.2-2.668 2.401-4.802 5.068-4.802h1.734c2.801 0 5.135 2.267 5.135 5.068v9.07" stroke="#AAB2C2" stroke-width="3.181" stroke-miterlimit="10" stroke-linecap="round" stroke-linejoin="round"/>
    <path d="M110.399 83c.765 3.245-1.876 4.827-5.446 5.67-3.57.841-6.64.606-7.406-2.639-.766-3.245 1.478-6.515 5.048-7.357 3.57-.842 7.038 1.08 7.804 4.326zM106.968 112.76c-.667 0-1.2-.533-1.2-1.2v-4.668c0-.667.533-1.201 1.2-1.201.667 0 1.2.534 1.2 1.201v4.668c0 .734-.533 1.2-1.2 1.2zM113.17 112.76c-.667 0-1.2-.533-1.2-1.2v-4.668c0-.667.533-1.201 1.2-1.201.667 0 1.201.534 1.201 1.201v4.668c0 .734-.534 1.2-1.201 1.2z" fill="#989FB0"/>
    <path d="M116.305 106.959h-12.271v-1.401c0-3.401 2.734-9.27 6.136-9.27 3.401 0 6.135 5.869 6.135 9.27v1.401z" fill="#989FB0"/>
    <path d="M168.121 109.293h-25.275a1.864 1.864 0 0 1-1.867-1.867V80.484c0-1.067.866-1.868 1.867-1.868h25.275c1.067 0 1.867.867 1.867 1.868v26.942c.067 1-.8 1.867-1.867 1.867z" fill="#EAEEF9"/>
    <path d="M164.986 93.421c0 3.135-1.534 6.002-3.868 7.736h-11.403a9.597 9.597 0 0 1-3.868-7.736c0-3.134 1.534-6.002 3.868-7.736h11.403c2.334 1.801 3.868 4.602 3.868 7.736z" fill="#CCD3DE"/>
    <path d="M151.849 93.954a.883.883 0 0 1-.867-.866V90.22c0-.467.401-.867.867-.867.467 0 .867.4.867.867v2.868c0 .466-.4.867-.867.867zM158.851 93.954a.883.883 0 0 1-.867-.866V90.22c0-.467.401-.867.867-.867.467 0 .867.4.867.867v2.868c0 .466-.4.867-.867.867zM156.184 98.09h-1.734a.812.812 0 0 1-.801-.801v-.867c0-.933.734-1.667 1.668-1.667.933 0 1.667.734 1.667 1.667v.867c0 .4-.334.8-.8.8z" fill="#989FB0"/>
    <path d="M144.046 82.684a1.134 1.134 0 1 0 0-2.268 1.134 1.134 0 0 0 0 2.268zM167.054 82.684a1.133 1.133 0 1 0 0-2.266 1.133 1.133 0 0 0 0 2.266zM144.046 107.559a1.134 1.134 0 1 0 0-2.269 1.134 1.134 0 0 0 0 2.269zM167.054 107.559a1.134 1.134 0 1 0-.001-2.267 1.134 1.134 0 0 0 .001 2.267z" fill="#D2DAE7"/>
    <path d="m91.103 7 4.089 1.494 1.06 26.734-2.221-.927L91.103 7zM94.232 37.34l2.02.979v2.627l-2.02-.825V37.34zM99.685 20.444l4.089 1.34v17.204l-2.272-.927-1.817-17.617zM101.704 40.946l2.07.927v2.473l-2.07-.773v-2.627z" fill="#B8BFCD"/>
</svg>
