<svg width="28" height="28" viewBox="0 0 28 28" fill="none" xmlns="http://www.w3.org/2000/svg">
    <path fill-rule="evenodd" clip-rule="evenodd" d="M17.62 4.879a5.833 5.833 0 0 0-7.24 0L5.712 8.573A5.833 5.833 0 0 0 3.5 13.147v5.52A5.833 5.833 0 0 0 9.333 24.5h9.334a5.833 5.833 0 0 0 5.833-5.833v-5.52a5.833 5.833 0 0 0-2.213-4.574l-4.666-3.694zm-5.793 1.829a3.5 3.5 0 0 1 4.345 0l4.667 3.694a3.5 3.5 0 0 1 1.328 2.745v5.52a3.5 3.5 0 0 1-3.5 3.5V21a4.667 4.667 0 0 0-9.334 0v1.167a3.5 3.5 0 0 1-3.5-3.5v-5.52a3.5 3.5 0 0 1 1.328-2.745l4.667-3.694zM11.668 21a2.333 2.333 0 1 1 4.666 0v1.167h-4.666V21z" fill="#fff"/>
</svg>
