<svg width="22" height="22" viewBox="0 0 22 22" fill="none" xmlns="http://www.w3.org/2000/svg">
    <path fill-rule="evenodd" clip-rule="evenodd" d="M15.949 2.956c.576.315 1.078.75 1.47 1.276.508.678.718 1.476.818 2.404.096.903.096 2.04.096 3.46v1.809c0 1.418 0 2.556-.096 3.459-.1.927-.31 1.726-.817 2.404-.393.526-.895.96-1.471 1.276-.743.406-1.563.501-2.495.468-.908-.032-2.035-.193-3.439-.393l-.097-.014c-1.081-.155-1.957-.28-2.657-.449-.725-.175-1.346-.415-1.885-.849a4.583 4.583 0 0 1-1.067-1.23c-.353-.595-.503-1.244-.574-1.987-.069-.717-.069-1.601-.068-2.693v-1.794c0-1.092 0-1.976.068-2.693.07-.743.22-1.392.574-1.987.28-.47.64-.887 1.067-1.23.539-.434 1.16-.674 1.885-.85.7-.168 1.576-.293 2.657-.448l.098-.014c1.403-.2 2.53-.361 3.438-.393.932-.033 1.752.062 2.495.468zm-4.301 5.942a.917.917 0 1 0-1.296-1.296l-2.75 2.75a.917.917 0 0 0 0 1.296l2.75 2.75a.917.917 0 1 0 1.296-1.296l-1.185-1.185H16.5v-1.834h-6.037l1.185-1.185z" fill="#121313"/>
</svg>
