<svg width="24" height="24" viewBox="0 0 24 24" fill="none" xmlns="http://www.w3.org/2000/svg">
    <path fill-rule="evenodd" clip-rule="evenodd" d="M16.29 1c.141 1.27-.374 2.547-1.14 3.463-.766.918-2.022 1.63-3.252 1.536-.168-1.245.454-2.544 1.163-3.355.791-.916 2.126-1.6 3.23-1.644zm4.556 15.911c-.135-.054-2.907-1.167-2.937-4.387-.024-2.685 2.168-4.006 2.36-4.121a.721.721 0 0 0 .009-.006c-1.288-1.866-3.295-2.123-4.01-2.152-1.044-.105-2.057.29-2.885.614-.525.205-.976.38-1.312.38-.374 0-.838-.181-1.357-.385-.68-.267-1.458-.572-2.26-.557-1.862.027-3.578 1.07-4.537 2.719-1.932 3.319-.493 8.236 1.39 10.929.92 1.316 2.019 2.8 3.46 2.745.646-.025 1.105-.218 1.58-.418.546-.23 1.114-.47 2.013-.47.858 0 1.401.233 1.923.456.499.213.978.419 1.695.406 1.494-.028 2.443-1.344 3.356-2.666 1.022-1.477 1.463-2.91 1.514-3.073a.838.838 0 0 1 .003-.012l-.005-.002z" fill="#000"/>
</svg>
