<svg width="25" height="24" viewBox="0 0 25 24" fill="none" xmlns="http://www.w3.org/2000/svg">
    <path d="M23.3 12.642a8.761 8.761 0 0 0-.224-2.129h-9.964v3.864h5.849a5.077 5.077 0 0 1-2.17 3.377l-.02.13 3.15 2.393.218.022c2.005-1.816 3.16-4.488 3.16-7.657" fill="#4285F4"/>
    <path d="M13.112 22.82c2.865 0 5.27-.925 7.028-2.52l-3.35-2.546c-.895.613-2.098 1.041-3.678 1.041-2.752-.015-5.185-1.758-6.037-4.326l-.125.01-3.275 2.488-.043.117c1.8 3.517 5.468 5.738 9.48 5.737" fill="#34A853"/>
    <path d="M7.075 14.47a6.298 6.298 0 0 1-.355-2.06c.005-.699.12-1.393.342-2.058l-.006-.138L3.74 7.687l-.108.05a10.211 10.211 0 0 0 0 9.347l3.443-2.614z" fill="#FBBC05"/>
    <path d="M13.112 6.026a5.946 5.946 0 0 1 4.103 1.55l2.995-2.869a10.306 10.306 0 0 0-7.098-2.706C9.1 2 5.43 4.22 3.632 7.738l3.43 2.614c.862-2.566 3.296-4.307 6.05-4.326z" fill="#EB4335"/>
</svg>
