<svg width="34" height="34" viewBox="0 0 34 34" fill="none" xmlns="http://www.w3.org/2000/svg">
    <rect width="34" height="34" rx="17" fill="#fff" fill-opacity=".65"/>
    <path opacity=".01" fill="#121313" d="M5 5h24v24H5z"/>
    <path fill-rule="evenodd" clip-rule="evenodd" d="M17.707 9.293a1 1 0 0 1 .083 1.32l-.083.094L12.415 16H24a1 1 0 0 1 .117 1.993L24 18H12.415l5.292 5.293a1 1 0 0 1 .083 1.32l-.083.094a1 1 0 0 1-1.32.083l-.094-.083-7-7a1.011 1.011 0 0 1-.097-.112l-.071-.11-.054-.114-.035-.105-.025-.117-.007-.06L9 17l.003-.075.017-.126.03-.111.044-.111.052-.098.064-.092.083-.094 7-7a1 1 0 0 1 1.414 0z" fill="#121313"/>
</svg>
