<svg width="150" height="50" viewBox="0 0 150 50" fill="none" xmlns="http://www.w3.org/2000/svg">
<path d="M2.74658 39.6816V34.4082C5.896 35.5801 9.45557 36.166 13.4253 36.166C18.2446 36.166 20.6543 34.5547 20.6543 31.332C20.6543 28.9883 19.1748 27.8164 16.2158 27.8164H11.2939C4.86328 27.8164 1.64795 24.8867 1.64795 19.0273C1.64795 12.582 6.22559 9.35938 15.3809 9.35938C18.8965 9.35938 22.229 9.87207 25.3784 10.8975V16.1709C22.229 14.999 18.8965 14.4131 15.3809 14.4131C10.1074 14.4131 7.4707 15.9512 7.4707 19.0273C7.4707 21.3711 8.74512 22.543 11.2939 22.543H16.2158C23.0566 22.543 26.4771 25.4727 26.4771 31.332C26.4771 37.9238 22.1265 41.2197 13.4253 41.2197C9.45557 41.2197 5.896 40.707 2.74658 39.6816ZM31.4209 41V9.5791H37.2437V22.543H52.7344V9.5791H58.5571V41H52.7344V27.5967H37.2437V41H31.4209ZM94.834 41V9.5791H108.896C115.312 9.5791 118.521 12.5308 118.521 18.4341C118.521 24.8354 114.133 28.71 105.359 30.0576L104.524 24.8721C109.797 23.9199 112.434 21.8325 112.434 18.6099C112.434 16.0024 111.13 14.6987 108.523 14.6987H100.657V41H94.834ZM119.641 9.5791H125.903L134.736 24.7183L143.042 9.5791H149.084L137.527 30.0137V41H131.704V30.0137L119.641 9.5791Z" fill="black"/>
<path d="M64 33.6768V17.3232C64 12.4411 66.6432 10 71.9297 10H83.0703C88.3568 10 91 12.4411 91 17.3232V33.6768C91 38.5589 88.3568 41 83.0703 41H71.9297C66.6432 41 64 38.5589 64 33.6768ZM69.9351 34.0812C69.9351 35.3691 70.6486 36.013 72.0757 36.013H82.9243C84.3514 36.013 85.0649 35.3691 85.0649 34.0812C85.0649 32.7932 85.0649 16.9188 85.0649 16.9188C85.0649 15.6309 84.3514 14.987 82.9243 14.987H72.0757C70.6486 14.987 69.9351 15.6309 69.9351 16.9188V34.0812Z" fill="#226BEB"/>
<path d="M73 7C73 5.34315 74.3431 4 76 4H80C81.6569 4 83 5.34315 83 7V11H73V7Z" stroke="#226BEB" stroke-width="2"/>
</svg>
