<svg width="22" height="22" viewBox="0 0 22 22" fill="none" xmlns="http://www.w3.org/2000/svg">
    <path fill-rule="evenodd" clip-rule="evenodd" d="M5.5 1.833A3.667 3.667 0 0 0 1.833 5.5v10.083a4.583 4.583 0 0 0 4.584 4.584H16.5a3.667 3.667 0 0 0 0-7.334V5.5a3.667 3.667 0 0 0-3.666-3.667H5.5zM18.334 16.5c0 1.013-.821 1.833-1.834 1.833v-3.666c1.013 0 1.834.82 1.834 1.833zM6.417 9.167a.917.917 0 0 0 0 1.833h5.5a.917.917 0 1 0 0-1.833h-5.5zM5.5 6.417c0-.507.41-.917.917-.917h5.5a.917.917 0 1 1 0 1.833h-5.5a.917.917 0 0 1-.917-.916zm.917 6.416a.917.917 0 1 0 0 1.834h5.5a.917.917 0 1 0 0-1.834h-5.5z" fill="#121313"/>
</svg>
