<svg width="29" height="29" viewBox="0 0 29 29" fill="none" xmlns="http://www.w3.org/2000/svg">
    <path fill-rule="evenodd" clip-rule="evenodd" d="M14.25 2.833a5.833 5.833 0 1 0 0 11.667 5.833 5.833 0 0 0 0-11.667zm-3.5 5.834a3.5 3.5 0 1 1 7 0 3.5 3.5 0 0 1-7 0zM12.083 16.833A7.167 7.167 0 0 0 4.916 24c0 1.197.97 2.167 2.167 2.167h14.334c1.196 0 2.166-.97 2.166-2.167a7.167 7.167 0 0 0-7.166-7.167h-4.334zm4.333 2.334a4.833 4.833 0 0 1 4.831 4.666H7.253a4.833 4.833 0 0 1 4.83-4.666h4.333z" fill="#B8B8B8"/>
</svg>
