<svg width="18" height="18" viewBox="0 0 18 18" fill="none" xmlns="http://www.w3.org/2000/svg">
    <path fill-rule="evenodd" clip-rule="evenodd" d="M1.5 4.179C1.5 2.699 2.7 1.5 4.179 1.5h.307c1.221 0 2.32.743 2.773 1.877L7.82 4.78c.34.85.14 1.82-.506 2.467l-.155.155a.483.483 0 0 0-.09.557 6.646 6.646 0 0 0 2.972 2.973c.185.093.41.056.557-.09l.155-.156a2.287 2.287 0 0 1 2.467-.506l1.403.561a2.986 2.986 0 0 1 1.877 2.773v.307c0 1.48-1.2 2.679-2.679 2.679C7.016 16.5 1.5 10.983 1.5 4.179z" fill="#226BEB"/>
</svg>
