<svg width="22" height="22" viewBox="0 0 22 22" fill="none" xmlns="http://www.w3.org/2000/svg">
    <path fill-rule="evenodd" clip-rule="evenodd" d="M1.833 11a9.167 9.167 0 1 1 18.334 0 9.167 9.167 0 0 1-18.334 0zm7.133-5.246a3.667 3.667 0 0 0-1.632 3.051v.362a.917.917 0 1 0 1.833 0v-.362a1.833 1.833 0 0 1 2.85-1.525l.161.107a1.472 1.472 0 0 1-.816 2.696h-.112c-.644 0-1.166.523-1.166 1.167v1.583a.917.917 0 0 0 1.833 0v-.963a3.306 3.306 0 0 0 1.278-6.008l-.16-.108a3.667 3.667 0 0 0-4.069 0zM11 16.5a.917.917 0 1 0 0-1.833.917.917 0 0 0 0 1.833z" fill="#121313"/>
</svg>
