<svg width="16" height="16" viewBox="0 0 16 16" fill="none" xmlns="http://www.w3.org/2000/svg">
    <path d="M6.667 6.667c.368 0 .666.298.666.666v4a.667.667 0 1 1-1.333 0v-4c0-.368.299-.666.667-.666zM10 7.333a.667.667 0 1 0-1.333 0v4a.667.667 0 1 0 1.333 0v-4z" fill="#121313"/>
    <path fill-rule="evenodd" clip-rule="evenodd" d="M11.267 4a3.335 3.335 0 0 0-6.534 0H2a.667.667 0 0 0 0 1.333h.713l.445 6.238a3.333 3.333 0 0 0 3.325 3.096h3.034c1.749 0 3.2-1.352 3.325-3.096l.445-6.238H14A.667.667 0 1 0 14 4h-2.733zM8 2.667A2 2 0 0 0 6.114 4h3.772A2 2 0 0 0 8 2.667zm3.95 2.666h-7.9l.438 6.143a2 2 0 0 0 1.995 1.857h3.034a2 2 0 0 0 1.995-1.857l.439-6.143z" fill="#121313"/>
</svg>
