<svg width="22" height="22" viewBox="0 0 22 22" fill="none" xmlns="http://www.w3.org/2000/svg">
    <path fill-rule="evenodd" clip-rule="evenodd" d="M6.417 2.75a4.583 4.583 0 0 0-4.583 4.583v4.584c0 1.555.774 2.93 1.959 3.758a2.75 2.75 0 1 0 5.374.825h3.667a2.75 2.75 0 1 0 5.5 0h.916a.917.917 0 0 0 .917-.917v-3.666a4.583 4.583 0 0 0-4.584-4.584h-.916a4.583 4.583 0 0 0-4.583-4.583H6.417zM18.177 11h-3.51V9.167h.917c1.197 0 2.215.765 2.593 1.833zm-3.51 5.5a.917.917 0 1 1 1.833 0 .917.917 0 0 1-1.833 0zm-9.167 0a.917.917 0 1 1 1.834 0 .917.917 0 0 1-1.834 0z" fill="#121313"/>
</svg>
