<svg width="24" height="24" viewBox="0 0 24 24" fill="none" xmlns="http://www.w3.org/2000/svg">
    <path opacity=".01" fill="#1D262D" d="M0 0h24v24H0z"/>
    <path fill-rule="evenodd" clip-rule="evenodd" d="M12.707 4.293a1 1 0 0 1 .083 1.32l-.083.094L7.415 11H19a1 1 0 0 1 .117 1.993L19 13H7.415l5.292 5.293a1 1 0 0 1 .083 1.32l-.083.094a1 1 0 0 1-1.32.083l-.094-.083-7-7a1.011 1.011 0 0 1-.097-.112l-.071-.11-.054-.114-.035-.105-.025-.117-.007-.06L4 12l.003-.075.017-.126.03-.111.044-.111.052-.098.064-.092.083-.094 7-7a1 1 0 0 1 1.414 0z" fill="#1D262D"/>
</svg>
