<svg width="29" height="29" viewBox="0 0 29 29" fill="none" xmlns="http://www.w3.org/2000/svg">
    <path fill-rule="evenodd" clip-rule="evenodd" d="M5.167 4a1.167 1.167 0 1 0 0 2.333h1.166c.584 0 1.068.43 1.154.99l.325 5.207A5.833 5.833 0 0 0 13.634 18h5.533a5.833 5.833 0 1 0 0-11.667H9.634A3.501 3.501 0 0 0 6.334 4H5.166zm4.974 8.385-.233-3.718h9.259a3.5 3.5 0 0 1 0 7h-5.533a3.5 3.5 0 0 1-3.493-3.282z" fill="#B8B8B8"/>
    <path d="M14.5 22.667a2.333 2.333 0 1 1-4.667 0 2.333 2.333 0 0 1 4.667 0zM19.167 25a2.333 2.333 0 1 0 0-4.667 2.333 2.333 0 0 0 0 4.667z" fill="#B8B8B8"/>
</svg>
