<svg width="172" height="170" viewBox="0 0 172 170" fill="none" xmlns="http://www.w3.org/2000/svg">
    <path fill="#fff" d="M1 0h170v170H1z"/>
    <path d="M143.946 126.436H14.99c8.176-18.213 33.9-31.508 64.478-31.508 30.511-.066 56.302 13.228 64.478 31.508z" fill="#EAEEF9"/>
    <path d="M157.44 126.436H171M1.696 126.436H150.66M42.444 135.277h113.201M16.52 135.277h18.678" stroke="#D5DAE8" stroke-width="2" stroke-miterlimit="10" stroke-linecap="round" stroke-linejoin="round"/>
    <path d="M142.55 50.99c-17.216 15.422-27.187 33.968-28.251 56.9M20.699 61.367c13.37 11.515 21.257 25.524 22.41 43.013" stroke="#D5DAE8" stroke-width="4" stroke-miterlimit="10" stroke-linecap="round" stroke-linejoin="round"/>
    <path d="M143.548 51.057s-4.919-5.517-11.101-10.901l.93-2.26-2.991.531c-2.06-1.728-4.254-3.39-6.448-4.72 4.255-2.525 7.911-2.26 11.234-.132 6.049 3.722 7.644 10.968 8.376 17.482z" fill="url(#109olob2ba)"/>
    <path d="M19.938 61.432s3.672-4.284 8.311-8.486l-.744-1.711 2.292.361c1.547-1.35 3.196-2.65 4.851-3.698-3.285-1.865-6.072-1.608-8.577.066-4.562 2.93-5.672 8.485-6.133 13.468z" fill="url(#3cfmfs2xpb)"/>
    <path d="M141.487 49.993s-6.116-1.595-13.029-2.526l-.399-2.06-1.861 1.795c-2.326-.266-4.653-.4-6.78-.333 1.861-3.789 4.52-5.318 7.977-5.384 5.916-.2 10.502 4.254 14.092 8.508z" fill="url(#pslqap5j2c)"/>
    <path d="M21.495 60.59s4.644-1.309 9.907-2.122l.274-1.579 1.448 1.342c1.771-.237 3.545-.373 5.17-.354-1.477-2.864-3.53-3.992-6.169-3.991-4.518-.065-7.953 3.403-10.63 6.704z" fill="url(#w2w2l930ud)"/>
    <path d="M142.817 52.254s-.133-7.844-1.396-16.353l2.326-1.13-2.725-1.595c-.465-2.792-1.13-5.65-1.928-8.176 5.119.93 7.844 3.59 9.107 7.644 2.127 6.98-1.595 13.893-5.384 19.61z" fill="url(#el3x7hmh4e)"/>
    <path d="M20.514 62.335s-.015-5.99.822-12.503l-1.792-.828 2.056-1.258c.314-2.138.779-4.33 1.35-6.27-3.893.787-5.934 2.857-6.837 5.97-1.52 5.36 1.424 10.582 4.4 14.889z" fill="url(#3k1n374srf)"/>
    <path d="M141.553 51.655s4.786 5.65 9.306 12.497l2.326-.665-.93 2.858c1.396 2.327 2.725 4.72 3.789 7.046 3.057-3.855 3.323-7.511 1.661-11.167-2.858-6.315-9.837-8.907-16.152-10.569z" fill="url(#xxnnfy0hlg)"/>
    <path d="M21.47 61.86s-3.57 4.383-6.918 9.677l-1.786-.473.753 2.168c-1.031 1.796-2.01 3.643-2.788 5.434-2.391-2.897-2.648-5.684-1.434-8.499 2.088-4.863 7.377-6.945 12.172-8.308z" fill="url(#4a8fuafvvh)"/>
    <path d="M141.753 50.858s7.711 1.196 16.02 3.656l1.462-2.128 1.197 2.925c2.725.864 5.45 1.861 7.843 3.058-.199-5.185-2.459-8.31-6.315-10.104-6.647-3.19-14.025-.465-20.207 2.593z" fill="url(#8r6bnxlnii)"/>
    <path d="M21.305 61.254S15.437 62.28 9.13 64.282L7.983 62.68l-.87 2.25c-2.067.7-4.133 1.502-5.941 2.451.075-3.96 1.753-6.379 4.67-7.806 5.026-2.534 10.699-.564 15.463 1.678z" fill="url(#l97jvdyk2j)"/>
    <path d="M144.154 48.727a2.957 2.957 0 1 0-4.18-4.182 2.957 2.957 0 0 0 4.18 4.182z" fill="url(#wixrnk40gk)"/>
    <path d="M19.44 59.663a2.258 2.258 0 1 1 3.13-3.254 2.258 2.258 0 0 1-3.13 3.254z" fill="url(#ruzk8kvxul)"/>
    <path d="M148.347 53.556a4.166 4.166 0 1 0-5.892 0 4.166 4.166 0 0 0 5.892 0z" fill="url(#491rd5naem)"/>
    <path d="M16.311 63.411a3.181 3.181 0 1 1 4.41-4.585 3.181 3.181 0 0 1-4.41 4.585z" fill="url(#pczk0w1sdn)"/>
    <path d="M142.368 53.092a2.688 2.688 0 1 0-3.801-3.801 2.688 2.688 0 0 0 3.801 3.801z" fill="url(#byawduimpo)"/>
    <path d="M20.869 62.968a2.052 2.052 0 1 1 2.845-2.958 2.052 2.052 0 0 1-2.845 2.958z" fill="url(#4gp7arp8np)"/>
    <path opacity=".4" d="M29.216 120.188c2.193-.465 4.52.199 6.182 1.662M52.68 112.942a49.986 49.986 0 0 1 6.316-1.994c1.329-.332 2.725-.532 4.054-.266 1.33.266 2.593 1.263 2.859 2.593M82.66 115.8c2.725-3.323 7.644-4.586 11.632-3.057.864.332 1.662.797 2.593.731.997-.067 1.794-.731 2.526-1.396.731-.665 1.395-1.396 2.326-1.795.931-.332 2.127-.133 2.592.731M109.182 119.39c3.39-2.326 7.843-3.057 11.832-2.06M47.097 105.697c.2-1.063 1.462-1.662 2.592-1.529 1.13.067 2.127.598 3.257.798 1.463.266 2.991-.133 4.188-1.064M32.606 115.734c2.194.133 4.454-.598 6.248-1.861M89.439 104.833c2.194-.333 4.454 0 6.381.997" stroke="#D5DAE8" stroke-miterlimit="10" stroke-linecap="round" stroke-linejoin="round"/>
    <path opacity=".6" d="M78.472 102.639c9.581 0 17.349-1.204 17.349-2.688 0-1.485-7.768-2.689-17.35-2.689-9.581 0-17.348 1.204-17.348 2.689 0 1.484 7.767 2.688 17.349 2.688z" fill="#D5DAE8"/>
    <path d="M60.933 144.323h60.378" stroke="#D5DAE8" stroke-width="2" stroke-miterlimit="10" stroke-linecap="round" stroke-linejoin="round"/>
    <path d="M101.22 75.59a23.192 23.192 0 0 1-5.432 14.961 23.263 23.263 0 0 1-17.935 8.376c-6.92 0-13.11-3.004-17.389-7.769a23.365 23.365 0 0 1-5.918-15.568c0-12.897 10.44-23.337 23.337-23.337 12.898 0 23.337 10.44 23.337 23.337z" fill="#DCE1EE"/>
    <path fill-rule="evenodd" clip-rule="evenodd" d="m73.39 70.1 3.706-7.529c.475-.966 1.85-.966 2.325 0l3.705 7.528 8.285 1.215c1.063.156 1.486 1.466.717 2.218l-5.994 5.856 1.415 8.273c.181 1.062-.93 1.872-1.882 1.37l-7.409-3.908-7.409 3.908c-.951.502-2.063-.308-1.881-1.37l1.414-8.273-5.994-5.856c-.77-.752-.346-2.062.718-2.218l8.285-1.215z" fill="#979FAF"/>
    <defs>
        <linearGradient id="109olob2ba" x1="133.745" y1="32.562" x2="133.745" y2="43.316" gradientUnits="userSpaceOnUse">
            <stop stop-color="#EAEEF5"/>
            <stop offset="1" stop-color="#D4DAE4"/>
        </linearGradient>
        <linearGradient id="3cfmfs2xpb" x1="27.146" y1="47.169" x2="27.306" y2="55.378" gradientUnits="userSpaceOnUse">
            <stop stop-color="#EAEEF5"/>
            <stop offset="1" stop-color="#D4DAE4"/>
        </linearGradient>
        <linearGradient id="pslqap5j2c" x1="130.454" y1="41.774" x2="130.454" y2="46.554" gradientUnits="userSpaceOnUse">
            <stop stop-color="#EAEEF5"/>
            <stop offset="1" stop-color="#D4DAE4"/>
        </linearGradient>
        <linearGradient id="w2w2l930ud" x1="29.794" y1="54.152" x2="29.865" y2="57.8" gradientUnits="userSpaceOnUse">
            <stop stop-color="#EAEEF5"/>
            <stop offset="1" stop-color="#D4DAE4"/>
        </linearGradient>
        <linearGradient id="el3x7hmh4e" x1="143.959" y1="25.947" x2="143.959" y2="41.244" gradientUnits="userSpaceOnUse">
            <stop stop-color="#EAEEF5"/>
            <stop offset="1" stop-color="#D4DAE4"/>
        </linearGradient>
        <linearGradient id="3k1n374srf" x1="19.251" y1="42.272" x2="19.479" y2="53.948" gradientUnits="userSpaceOnUse">
            <stop stop-color="#EAEEF5"/>
            <stop offset="1" stop-color="#D4DAE4"/>
        </linearGradient>
        <linearGradient id="xxnnfy0hlg" x1="150.137" y1="52.41" x2="150.137" y2="64.611" gradientUnits="userSpaceOnUse">
            <stop stop-color="#EAEEF5"/>
            <stop offset="1" stop-color="#D4DAE4"/>
        </linearGradient>
        <linearGradient id="4a8fuafvvh" x1="14.928" y1="62.563" x2="15.109" y2="71.876" gradientUnits="userSpaceOnUse">
            <stop stop-color="#EAEEF5"/>
            <stop offset="1" stop-color="#D4DAE4"/>
        </linearGradient>
        <linearGradient id="8r6bnxlnii" x1="155.016" y1="47.237" x2="155.016" y2="53.71" gradientUnits="userSpaceOnUse">
            <stop stop-color="#EAEEF5"/>
            <stop offset="1" stop-color="#D4DAE4"/>
        </linearGradient>
        <linearGradient id="l97jvdyk2j" x1="11.127" y1="58.687" x2="11.223" y2="63.628" gradientUnits="userSpaceOnUse">
            <stop stop-color="#EAEEF5"/>
            <stop offset="1" stop-color="#D4DAE4"/>
        </linearGradient>
        <linearGradient id="wixrnk40gk" x1="140.118" y1="44.69" x2="142.465" y2="47.037" gradientUnits="userSpaceOnUse">
            <stop stop-color="#B0BACC"/>
            <stop offset="1" stop-color="#969EAE"/>
        </linearGradient>
        <linearGradient id="ruzk8kvxul" x1="22.461" y1="56.521" x2="20.704" y2="58.348" gradientUnits="userSpaceOnUse">
            <stop stop-color="#B0BACC"/>
            <stop offset="1" stop-color="#969EAE"/>
        </linearGradient>
        <linearGradient id="491rd5naem" x1="142.66" y1="47.867" x2="145.967" y2="51.175" gradientUnits="userSpaceOnUse">
            <stop stop-color="#B0BACC"/>
            <stop offset="1" stop-color="#969EAE"/>
        </linearGradient>
        <linearGradient id="pczk0w1sdn" x1="20.568" y1="58.985" x2="18.093" y2="61.559" gradientUnits="userSpaceOnUse">
            <stop stop-color="#B0BACC"/>
            <stop offset="1" stop-color="#969EAE"/>
        </linearGradient>
        <linearGradient id="byawduimpo" x1="138.698" y1="49.422" x2="140.832" y2="51.556" gradientUnits="userSpaceOnUse">
            <stop stop-color="#B0BACC"/>
            <stop offset="1" stop-color="#969EAE"/>
        </linearGradient>
        <linearGradient id="4gp7arp8np" x1="23.615" y1="60.112" x2="22.018" y2="61.773" gradientUnits="userSpaceOnUse">
            <stop stop-color="#B0BACC"/>
            <stop offset="1" stop-color="#969EAE"/>
        </linearGradient>
    </defs>
</svg>
